<svg t="1718245740984" class="icon" viewBox="0 0 1024 1024" version="1.1" xmlns="http://www.w3.org/2000/svg" p-id="5401" width="200" height="200"><path d="M102.679273 546.304l43.101091 35.467636h346.112a35.374545 35.374545 0 0 1 2.187636-2.187636l34.909091-31.511273a34.257455 34.257455 0 0 1 48.872727 2.978909l0.418909 0.465455a34.909091 34.909091 0 0 1-2.978909 48.872727l-34.909091 31.464727a34.443636 34.443636 0 0 1-5.12 3.816728v109.195636h48.733091a34.909091 34.909091 0 1 1 0 69.818182H535.272727l-0.186182 9.169454a185.111273 185.111273 0 0 1-22.434909 79.77891 32.674909 32.674909 0 0 1 11.450182 6.702545l38.818909 34.443636a34.909091 34.909091 0 0 1 2.699637 49.570909 34.536727 34.536727 0 0 1-48.779637 2.885819l-38.818909-34.443637a34.909091 34.909091 0 0 1-6.562909-7.866182A185.530182 185.530182 0 0 1 349.090909 1000.727273H302.545455c-45.707636 0-87.505455-16.477091-119.947637-43.752728a32.256 32.256 0 0 1-7.540363 9.681455l-34.629819 30.487273a34.676364 34.676364 0 0 1-48.919272-3.072l-0.325819-0.372364a34.909091 34.909091 0 0 1 3.258182-49.105454l34.629818-30.487273a34.583273 34.583273 0 0 1 12.008728-6.935273A184.785455 184.785455 0 0 1 116.363636 814.731636H67.863273a34.909091 34.909091 0 1 1 0-69.818181H116.363636v-99.607273a34.676364 34.676364 0 0 1-6.144-2.932364l-4.189091-2.932363-48.407272-39.84291a33.978182 33.978182 0 0 1-0.698182-0.60509l-3.537455-3.584a33.978182 33.978182 0 0 1 0.186182-44.357819l0.651637-0.698181a34.909091 34.909091 0 0 1 48.500363-4.049455zM488.727273 628.363636H162.909091v186.181819a139.636364 139.636364 0 0 0 128 139.170909v-197.352728a34.909091 34.909091 0 1 1 69.818182 0v197.352728A139.636364 139.636364 0 0 0 488.727273 814.545455v-186.181819zM325.818182 23.272727l651.636363 488.727273-323.025454 242.315636a315.019636 315.019636 0 0 0 8.052364-93.370181L861.090909 512 395.636364 162.816l0.046545 207.266909a316.695273 316.695273 0 0 0-69.818182-2.606545L325.818182 23.272727z m0 384a139.636364 139.636364 0 0 1 139.636363 139.636364h-279.272727a139.636364 139.636364 0 0 1 139.636364-139.636364z m0 46.545455l-6.981818 0.232727a93.044364 93.044364 0 0 0-71.121455 42.170182l-2.513454 4.142545h161.186909l-2.466909-4.142545A92.997818 92.997818 0 0 0 325.818182 453.818182z" p-id="5402" fill="#333333"></path></svg>