<svg t="1718247073954" class="icon" viewBox="0 0 1024 1024" version="1.1" xmlns="http://www.w3.org/2000/svg" p-id="5943" width="200" height="200"><path d="M928 565.33333334h-96.32V354.66633334l86.827-86.613c12.48-12.48 12.48-32.747 0.106-45.227-12.586-12.586-32.853-12.48-45.333-0.106L786.453 309.33333334H237.227l-86.934-86.613c-12.48-12.48-32.746-12.48-45.226 0.106-12.48 12.48-12.48 32.747 0.106 45.227l87.147 86.933V565.33333334H96c-17.707 0-32 14.293-32 32s14.293 32 32 32h96.32v29.653a31.64 31.64 0 0 0-0.32 4.48c0 50.24 13.547 97.494 37.547 138.987l-92.054 92.16c-12.48 12.48-12.48 32.747 0 45.227 6.294 6.293 14.4 9.386 22.614 9.386s16.426-3.093 22.613-9.386l85.12-85.227C326.613 918.72033334 414.187 959.57333334 512 959.57333334c97.813 0 185.493-40.853 244.16-104.96l85.227 85.333C847.68 946.24033334 855.787 949.33333334 864 949.33333334s16.427-3.093 22.613-9.387c12.48-12.48 12.48-32.746 0-45.226l-92.16-92.267c23.894-41.493 37.44-88.747 37.44-138.987a31.64 31.64 0 0 0-0.32-4.48V629.33333334H928c17.707 0 32-14.293 32-32s-14.293-32-32-32zM543.573 893.86633334c0.32-1.706 0.427-3.413 0.427-5.226V533.33333334c0-17.707-14.293-32-32-32s-32 14.293-32 32v355.413c0 1.814 0.107 3.52 0.427 5.227-124.8-13.973-222.08-109.76-224.427-226.133a27.32 27.32 0 0 0 0.32-4.16V373.33333334h511.36v290.24c0 1.387 0.107 2.773 0.213 4.16-2.24 116.373-99.52 212.16-224.32 226.133z" p-id="5944" fill="#333333"></path><path d="M352 245.33333334h320c10.24 0 19.733-4.8 25.813-13.013 5.974-8.214 7.787-18.774 4.8-28.48C674.453 113.81333334 597.76 53.33333334 512 53.33333334c-85.867 0-162.453 60.48-190.507 150.507-3.093 9.706-1.28 20.266 4.8 28.48C332.267 240.53333334 341.76 245.33333334 352 245.33333334z m160-128c43.84 0 84.48 24.533 110.08 64H401.92c25.6-39.467 66.24-64 110.08-64z" p-id="5945" fill="#333333"></path></svg>