<svg t="1741086067509" class="icon" viewBox="0 0 1024 1024" version="1.1" xmlns="http://www.w3.org/2000/svg"
    p-id="16461" width="200" height="200">
    <path
        d="M784.469333 425.429333a29.696 29.696 0 0 0 29.696-29.696v-94.293333c0-57.002667-46.506667-103.253333-103.936-103.253333H232.874667a103.594667 103.594667 0 0 0-103.978667 103.253333v526.933333c0 57.045333 46.506667 103.253333 103.978667 103.253334h235.818666a29.482667 29.482667 0 0 0 0-58.965334H232.874667a44.416 44.416 0 0 1-44.586667-44.288V301.44c0-24.448 19.968-44.288 44.586667-44.288h477.354666c24.576 0 44.544 19.84 44.544 44.288v94.293333c0 16.426667 13.312 29.696 29.696 29.696z"
        fill="#6f6e6c" p-id="16462"></path>
    <path
        d="M276.906667 428.032a28.8 28.8 0 0 1 0-57.6h238.72a28.8 28.8 0 0 1 0 57.6H276.906667zM276.906667 582.570667a28.8 28.8 0 0 1 0-57.6h119.381333a28.8 28.8 0 0 1 0 57.6H276.906667zM657.194667 857.173333c-103.765333 0-187.946667-83.626667-187.946667-186.88s84.181333-186.88 187.946667-186.88c103.722667 0 187.904 83.626667 187.904 186.88s-84.181333 186.88-187.904 186.88z m0-57.6c71.978667 0 130.304-57.898667 130.304-129.28 0-71.338667-58.325333-129.28-130.304-129.28-72.021333 0-130.346667 57.941333-130.346667 129.28 0 71.381333 58.325333 129.28 130.346667 129.28z"
        fill="#6f6e6c" p-id="16463"></path>
    <path
        d="M769.962667 827.989333a28.8 28.8 0 0 1 39.594666-41.813333l106.069334 100.352a28.8 28.8 0 1 1-39.552 41.813333l-106.112-100.352zM862.976 375.04V196.053333c0-25.6-20.906667-46.421333-46.677333-46.421333h-293.76a27.349333 27.349333 0 1 1 0-54.698667h293.76a101.461333 101.461333 0 0 1 101.802666 101.12V375.04a27.562667 27.562667 0 1 1-55.125333 0V196.053333c0-25.6-20.906667-46.421333-46.677333-46.421333h-293.76a27.349333 27.349333 0 1 1 0-54.698667h293.76a101.461333 101.461333 0 0 1 101.802666 101.12V375.04a27.562667 27.562667 0 1 1-55.125333 0z"
        fill="#6f6e6c" p-id="16464"></path>
</svg>