<svg t="1741097843598" class="icon" viewBox="0 0 1024 1024" version="1.1" xmlns="http://www.w3.org/2000/svg"
    p-id="21222" width="200" height="200">
    <path
        d="M231.03921604 116.26470547a52.94117637 52.94117637 0 0 1 74.91176456 0L904.87450969 715.29411729a52.94117637 52.94117637 0 0 1 1e-8 74.85882363l-102.28235273 102.33529453a52.94117637 52.94117637 0 0 1-74.85882364 0L128.75686243 293.45882364a52.94117637 52.94117637 0 0 1 1e-8-74.85882364L231.03921604 116.26470547z m37.42941182 59.92941182L188.63333333 256.02941182l576.52941182 576.52941181 79.78235273-79.83529453-576.52941182-576.52941181z"
        fill="#cccccc" p-id="21223"></path>
    <path
        d="M274.4509806 374.35294092l112.28823544-112.34117637 48.70588184 48.70588272-112.34117637 112.23529365zM269.15686244 564.09411729l-56.64705821 104.50588271-104.98235361 57.1764709 105.03529453 57.1235291 56.64705908 104.50588271 50.45294092-98.47058818 111.17647089-63.21176542-104.50588271-57.17647003zM560.5980388 62l-33.98823458 62.73529453-63 34.30588184 63 34.25294092 33.98823458 62.73529453 30.28235361-59.08235274 66.70588184-37.90588271-62.73529365-34.30588184zM833.03333333 222.57058818l-23.77058818 43.94117637-44.1 23.98235274 44.1 23.9823536 23.8235291 43.94117638 21.1764709-41.4 46.69411729-26.52352998-43.94117638-24.03529366z"
        fill="#cccccc" p-id="21224"></path>
</svg>